<svg width="28" height="24" viewBox="0 0 28 24" fill="none" xmlns="http://www.w3.org/2000/svg">
<path d="M13.5639 7.99994C11.3559 7.99994 8.63988 9.79194 7.99588 11.9999H15.9959C16.6399 9.79194 15.7719 7.99994 13.5639 7.99994Z" fill="#FF3300"/>
<path d="M27.5 0H3.5C2.332 4 1.168 8 0 12H4C5.444 7.54 9.652 4.128 14.332 4C18.652 3.88 21.28 7.972 20 12H24C25.168 8 26.332 4 27.5 0Z" fill="#FF3300"/>
<path d="M14.4321 16C16.6401 16 19.3561 14.208 20.0001 12H12.0001C11.3561 14.208 12.2241 16 14.4321 16Z" fill="#FF3300"/>
<path d="M28.0001 12H24.0001C22.5561 16.464 18.3481 19.872 13.6681 20C9.34809 20.12 6.72009 16.028 8.00009 12H4.00009C2.83209 16 1.66809 20 0.500092 24H24.5001C25.6681 20 26.8321 16 28.0001 12Z" fill="#FF3300"/>
</svg>
