<svg width="126" height="24" viewBox="0 0 126 24" fill="none" xmlns="http://www.w3.org/2000/svg">
<path d="M13.5639 7.99994C11.3559 7.99994 8.63988 9.79194 7.99588 11.9999H15.9959C16.6399 9.79194 15.7719 7.99994 13.5639 7.99994Z" fill="#FF3300"/>
<path d="M27.5 0H3.5C2.332 4 1.168 8 0 12H4C5.444 7.54 9.652 4.128 14.332 4C18.652 3.88 21.28 7.972 20 12H24C25.168 8 26.332 4 27.5 0V0Z" fill="#FF3300"/>
<path d="M14.4321 16C16.6401 16 19.3561 14.208 20.0001 12H12.0001C11.3561 14.208 12.2241 16 14.4321 16Z" fill="#FF3300"/>
<path d="M28.0001 12H24.0001C22.5561 16.464 18.3481 19.872 13.6681 20C9.34809 20.12 6.72009 16.028 8.00009 12H4.00009C2.83209 16 1.66809 20 0.500092 24H24.5001C25.6681 20 26.8321 16 28.0001 12Z" fill="#FF3300"/>
<path d="M47.5481 9.1279L50.1401 6.5359C49.4041 5.7359 48.5401 5.1199 47.5681 4.7079C46.5681 4.2799 45.4561 4.0639 44.2681 4.0639C42.7241 4.0639 41.3161 4.4119 40.0881 5.0999C38.8601 5.7879 37.8761 6.7439 37.1681 7.9439C36.4601 9.1439 36.1001 10.5119 36.1001 12.0119C36.1001 13.5119 36.4601 14.8199 37.1681 16.0159C37.8761 17.2159 38.8601 18.1759 40.0881 18.8759C41.3161 19.5759 42.7121 19.9279 44.2361 19.9279C45.4441 19.9279 46.5721 19.6999 47.5841 19.2519C48.5641 18.8159 49.4281 18.1919 50.1441 17.3919L47.6121 14.8279C47.1961 15.2639 46.7161 15.6079 46.1881 15.8399C45.6281 16.0879 44.9841 16.2159 44.2721 16.2159C43.4921 16.2159 42.7841 16.0279 42.1681 15.6599C41.5521 15.2919 41.0641 14.7879 40.7161 14.1599C40.3681 13.5319 40.1961 12.7999 40.1961 11.9799C40.1961 11.1599 40.3721 10.4279 40.7161 9.7999C41.0641 9.1719 41.5521 8.6719 42.1681 8.3159C42.7841 7.9599 43.4921 7.7759 44.2681 7.7759C44.9561 7.7759 45.5961 7.8959 46.1681 8.1319C46.7081 8.3559 47.1721 8.6919 47.5521 9.1279H47.5481Z" fill="#283237"/>
<path d="M63.636 5.0999C62.416 4.4119 61.016 4.0639 59.472 4.0639C57.928 4.0639 56.56 4.4199 55.34 5.1159C54.12 5.8159 53.144 6.7679 52.432 7.9439C51.724 9.1199 51.364 10.4679 51.364 11.9479C51.364 13.4279 51.724 14.8199 52.432 16.0159C53.14 17.2159 54.116 18.1759 55.336 18.8759C56.556 19.5759 57.944 19.9279 59.468 19.9279C60.992 19.9279 62.42 19.5719 63.648 18.8759C64.876 18.1759 65.86 17.2119 66.568 15.9999C67.276 14.7919 67.636 13.4279 67.636 11.9479C67.636 10.4679 67.272 9.1159 66.552 7.9279C65.832 6.7399 64.848 5.7879 63.632 5.0999H63.636ZM63.04 14.1559C62.704 14.7839 62.22 15.2919 61.604 15.6559C60.988 16.0239 60.268 16.2119 59.468 16.2119C58.668 16.2119 57.984 16.0239 57.38 15.6559C56.772 15.2879 56.296 14.7839 55.96 14.1559C55.624 13.5319 55.456 12.7959 55.456 11.9759C55.456 11.1559 55.624 10.4239 55.96 9.79591C56.296 9.16791 56.776 8.66791 57.38 8.30791C57.988 7.95191 58.688 7.76791 59.468 7.76791C60.248 7.76791 60.976 7.94791 61.572 8.30791C62.168 8.66391 62.652 9.16391 63.008 9.79191C63.364 10.4199 63.544 11.1519 63.544 11.9719C63.544 12.7919 63.376 13.5239 63.04 14.1519V14.1559Z" fill="#283237"/>
<path d="M73.3882 19.032C74.4282 19.584 75.6242 19.864 76.9362 19.864C78.2482 19.864 79.4362 19.584 80.4682 19.032C81.4962 18.484 82.3122 17.696 82.8922 16.7C83.4762 15.704 83.7682 14.532 83.7682 13.22V4.41199H79.8002V13.124C79.8002 14.1 79.5442 14.872 79.0402 15.42C78.5362 15.968 77.8242 16.248 76.9322 16.248C76.3442 16.248 75.8242 16.128 75.3882 15.884C74.9482 15.64 74.6122 15.28 74.3922 14.804C74.1762 14.336 74.0642 13.772 74.0642 13.124V4.41199H70.0642V13.22C70.0642 14.532 70.3602 15.704 70.9402 16.7C71.5202 17.696 72.3442 18.48 73.3802 19.032H73.3882Z" fill="#283237"/>
<path d="M108.856 4.41198H105.26V0.0999756H101.292V4.41198H97.7V7.87198H101.292V19.576H105.26V7.87198H108.856V4.41198Z" fill="#283237"/>
<path d="M125.424 11.6599C125.424 10.1999 125.108 8.8759 124.484 7.7319C123.86 6.5879 122.972 5.6799 121.852 5.0359C120.728 4.3919 119.44 4.0639 118.02 4.0639C116.516 4.0639 115.144 4.4119 113.936 5.0999C112.728 5.7879 111.76 6.7399 111.064 7.9279C110.364 9.1159 110.012 10.4799 110.012 11.9799C110.012 13.4799 110.372 14.8759 111.08 16.0639C111.788 17.2519 112.776 18.2039 114.016 18.8919C115.256 19.5799 116.692 19.9279 118.276 19.9279C119.508 19.9279 120.66 19.7039 121.704 19.2679C122.716 18.8439 123.616 18.1999 124.372 17.3599L122.032 15.0199C121.572 15.5399 121.028 15.9279 120.408 16.1759C119.764 16.4359 119.032 16.5639 118.24 16.5639C117.356 16.5639 116.572 16.3759 115.904 16.0119C115.232 15.6439 114.708 15.0999 114.352 14.3959C114.224 14.1439 114.116 13.8479 114.02 13.4959L113.988 13.3719L125.26 13.3439C125.332 13.0399 125.38 12.7559 125.396 12.4999C125.416 12.2119 125.428 11.9319 125.428 11.6639L125.424 11.6599ZM113.984 10.4519L114.02 10.3239C114.108 9.99991 114.204 9.7279 114.32 9.4999C114.656 8.8159 115.144 8.2839 115.776 7.9159C116.404 7.5479 117.148 7.3599 117.988 7.3599C118.828 7.3599 119.468 7.52391 120.012 7.85191C120.556 8.17991 120.988 8.66391 121.292 9.29191C121.436 9.58791 121.548 9.92791 121.632 10.3039L121.66 10.4239L113.992 10.4479L113.984 10.4519Z" fill="#283237"/>
<path d="M93.5638 7.71201C94.4198 7.69601 95.0198 7.71601 95.4278 7.77601V4.44001C95.1318 4.39601 94.8278 4.37201 94.5198 4.37201C92.5598 4.37201 91.4398 4.75601 90.6518 5.69601L90.4438 5.95201V4.41201H86.4758V19.576H90.4438V11.216C90.4438 10.028 90.7358 9.13601 91.3158 8.56801C91.8878 8.00801 92.6198 7.72801 93.5638 7.71201Z" fill="#283237"/>
</svg>
