<svg width="32" height="32" viewBox="0 0 32 32" fill="none" xmlns="http://www.w3.org/2000/svg">
<circle cx="16" cy="16" r="16" fill="white"/>
<path d="M12.3468 22.96V12.9532H9.23427V22.96H12.3468ZM10.7738 11.6145C11.7778 11.6145 12.581 10.7778 12.581 9.77378C12.581 8.80322 11.7778 8 10.7738 8C9.80322 8 9 8.80322 9 9.77378C9 10.7778 9.80322 11.6145 10.7738 11.6145ZM23.96 22.96H23.9935V17.4713C23.9935 14.7939 23.3911 12.7189 20.2451 12.7189C18.7391 12.7189 17.735 13.5556 17.3 14.3254H17.2665V12.9532H14.2879V22.96H17.4004V18.0068C17.4004 16.7016 17.6346 15.4633 19.2411 15.4633C20.8475 15.4633 20.881 16.9358 20.881 18.1072V22.96H23.96Z" fill="#FF3300"/>
</svg>
