<svg width="24" height="24" viewBox="0 0 24 24" fill="none" xmlns="http://www.w3.org/2000/svg">
<path fill-rule="evenodd" clip-rule="evenodd" d="M12 11C13.6569 11 15 9.65685 15 8C15 6.34315 13.6569 5 12 5C10.3431 5 9 6.34315 9 8C9 9.65685 10.3431 11 12 11ZM12 13C14.7614 13 17 10.7614 17 8C17 5.23858 14.7614 3 12 3C9.23858 3 7 5.23858 7 8C7 10.7614 9.23858 13 12 13Z" fill="#FF3300"/>
<path fill-rule="evenodd" clip-rule="evenodd" d="M19.8018 19C18.9934 14.992 15.8073 12 12 12C8.19273 12 5.00664 14.992 4.19824 19C4.0685 19.6432 4 20.3126 4 21H20C20 20.3126 19.9315 19.6432 19.8018 19ZM17.7558 19C16.9952 15.9916 14.5653 14 12 14C9.43471 14 7.00478 15.9916 6.24416 19H17.7558Z" fill="#FF3300"/>
</svg>
