<svg width="24" height="24" viewBox="0 0 24 24" fill="none" xmlns="http://www.w3.org/2000/svg">
<path fill-rule="evenodd" clip-rule="evenodd" d="M10.4838 13.435C11.7678 14.719 14.7427 14.833 17.2014 12.3744C19.66 9.91569 19.5459 6.94078 18.262 5.65685C16.9781 4.37293 14.0032 4.25884 11.5445 6.71751C9.08583 9.17619 9.19992 12.1511 10.4838 13.435ZM9.06963 14.8492C11.4128 17.1924 15.6866 16.7175 18.6156 13.7886C21.5445 10.8596 22.0194 6.58579 19.6762 4.24264C17.3331 1.89949 13.0592 2.37437 10.1303 5.3033C7.20136 8.23223 6.72649 12.5061 9.06963 14.8492Z" fill="#FF3300"/>
<path fill-rule="evenodd" clip-rule="evenodd" d="M6.06477 15.9805C6.53313 15.0532 7.27753 11.7333 7.84961 9L9.34151 11.5185C8.79054 14.1509 8.4641 15.6663 7.84997 16.8822C7.23594 18.0978 6.34965 18.9839 4.92914 20.4041C4.89545 20.4378 4.86147 20.4718 4.82718 20.5061L3.41296 19.0918C4.96499 17.5398 5.61088 16.8791 6.06477 15.9805Z" fill="#FF3300"/>
<path fill-rule="evenodd" clip-rule="evenodd" d="M7.93948 17.8543C8.86675 17.386 12.2667 16.6412 15 16.0691L12.4014 14.5776C9.76901 15.1286 8.25365 15.455 7.03779 16.0691C5.8221 16.6832 4.93603 17.5695 3.51585 18.99C3.48217 19.0237 3.44819 19.0576 3.41391 19.0919L4.82812 20.5061C6.38014 18.9541 7.04085 18.3082 7.93948 17.8543Z" fill="#FF3300"/>
<path fill-rule="evenodd" clip-rule="evenodd" d="M8.36343 16.9706L6.94922 15.5564L1.99947 20.5061L3.41368 21.9204L8.36343 16.9706Z" fill="#FF3300"/>
</svg>
